<svg width="48" height="48" viewBox="0 0 48 48" fill="none" xmlns="http://www.w3.org/2000/svg">
<path d="M4.21875 47.9389V31.3725L0 30.9844V48H1.40625C2.38219 48 3.31491 47.9781 4.21875 47.9389Z" fill="#E72D2B"/>
<path d="M42.0656 48C45.2999 48 47.9155 45.4687 48 42.1499C47.9719 40.6594 47.578 39.478 47.2405 38.4094C46.8749 37.3968 46.5938 36.4968 46.5938 35.3438C46.5938 34.1907 46.8749 33.2907 47.2405 32.278C47.578 31.1531 48 29.9156 48 28.3125V21.2812C48 18.9468 46.1157 17.0625 43.7812 17.0625C41.4468 17.0625 39.5625 18.9468 39.5625 21.2812V23.6157L33.197 31.9969C32.978 32.2914 32.7196 32.5488 32.4375 32.7758V45.6184C33.7028 45.8729 34.9487 46.2267 36.15 46.7625C37.978 47.578 40.0405 48 42.0656 48Z" fill="#E72D2B"/>
<path d="M25.2094 45.3562C26.3905 45.272 27.6281 45.2156 28.9219 45.1875C29.147 45.1875 29.3999 45.1875 29.625 45.2438V0H26.8125V12.8437C26.8125 15.1782 24.9282 17.0625 22.5938 17.0625H14.1562C11.8218 17.0625 9.84375 15.1782 9.84375 12.8437V0H7.03125V47.7468C10.1531 47.4656 13.0594 47.0157 15.7876 46.5656C18.7406 46.0875 21.8062 45.5812 25.2094 45.3562ZM14.1562 32.5312C14.1562 31.7546 14.7858 31.125 15.5625 31.125H16.9688V29.7187C16.9688 28.9421 17.5983 28.3125 18.375 28.3125C19.1517 28.3125 19.7812 28.9421 19.7812 29.7187V31.125H21.1875C21.9642 31.125 22.5938 31.7546 22.5938 32.5312C22.5938 33.3079 21.9642 33.9375 21.1875 33.9375H19.7812V35.3437C19.7812 36.1204 19.1517 36.75 18.375 36.75C17.5983 36.75 16.9688 36.1204 16.9688 35.3437V33.9375H15.5625C14.7858 33.9375 14.1562 33.3079 14.1562 32.5312Z" fill="#E72D2B"/>
</svg>
