<svg width="48" height="48" viewBox="0 0 48 48" fill="none" xmlns="http://www.w3.org/2000/svg">
<path d="M35.25 3.09375C29.5632 3.09375 25.913 7.03237 24 10.5796C22.087 7.03228 18.4368 3.09375 12.75 3.09375C5.53472 3.09375 0 8.94806 0 16.7126C0 18.7386 0.405656 20.609 1.15256 22.4062H11.8807L14.3046 17.5585C14.7825 16.6055 16.3425 16.6055 16.8204 17.5585L21.1875 26.2927L22.7421 23.1836C23.22 22.2306 24.78 22.2306 25.2579 23.1836L26.8125 26.2927L31.1796 17.5586C31.6575 16.6056 33.2175 16.6056 33.6954 17.5586L36.1193 22.4062H46.8474C47.5943 20.609 48 18.7386 48 16.7126C48 8.94806 42.4653 3.09375 35.25 3.09375Z" fill="#E72D2B"/>
<path d="M35.2499 25.2187C34.7171 25.2187 34.231 24.918 33.992 24.4415L32.4374 21.3323L28.0704 30.0665C27.8314 30.543 27.3453 30.8437 26.8124 30.8437C26.2796 30.8437 25.7935 30.543 25.5545 30.0665L23.9999 26.9573L22.4454 30.0665C21.9674 31.0195 20.4074 31.0195 19.9295 30.0665L15.5624 21.3323L14.0079 24.4415C13.7689 24.918 13.2828 25.2187 12.7499 25.2187H2.62842C5.52276 29.7726 10.7354 34.0981 17.2557 39.6012C19.0862 41.1461 21.0336 42.79 23.0784 44.5629C23.3434 44.7922 23.6716 44.9062 23.9999 44.9062C24.3281 44.9062 24.6563 44.7922 24.9213 44.5629C26.9662 42.79 28.9135 41.1462 30.744 39.6012C37.2645 34.0981 42.4769 29.7726 45.3713 25.2187H35.2499Z" fill="#E72D2B"/>
</svg>
