<svg width="20" height="20" viewBox="0 0 20 20" fill="none" xmlns="http://www.w3.org/2000/svg">
<path d="M14.375 0H5.625C2.5 0 0 2.5 0 5.625V9.375V14.375C0 17.5 2.5 20 5.625 20H14.375C17.5 20 20 17.5 20 14.375V9.375V5.625C20 2.5 17.5 0 14.375 0ZM10 6.25C12.0625 6.25 13.75 7.9375 13.75 10C13.75 12.0625 12.0625 13.75 10 13.75C7.9375 13.75 6.25 12.0625 6.25 10C6.25 7.9375 7.9375 6.25 10 6.25ZM13.75 4.375C13.75 3.6875 14.3125 3.125 15 3.125C15.6875 3.125 16.25 3.6875 16.25 4.375C16.25 5.0625 15.6875 5.625 15 5.625C14.3125 5.625 13.75 5.0625 13.75 4.375Z" fill="white"/>
</svg>
