<svg width="62" height="42" viewBox="0 0 62 42" fill="none" xmlns="http://www.w3.org/2000/svg">
<rect width="62" height="42" rx="21" fill="#F7F7F7"/>
<path d="M40 19L44 23L48 19" stroke="#1C2B39" stroke-width="1.5" stroke-linecap="round" stroke-linejoin="round"/>
<path fill-rule="evenodd" clip-rule="evenodd" d="M23 12C27.9706 12 32 16.0294 32 21C32 25.9706 27.9706 30 23 30C18.0294 30 14 25.9706 14 21C14 16.0294 18.0294 12 23 12ZM23.75 28.2864C24.2127 28.0317 24.7304 27.5244 25.2243 26.6355C25.899 25.4211 26.382 23.7147 26.4812 21.75H23.75V28.2864ZM22.25 28.2864C21.7873 28.0317 21.2696 27.5244 20.7757 26.6355C20.101 25.4211 19.618 23.7147 19.5188 21.75H22.25V28.2864ZM23.75 20.25H26.4812C26.382 18.2853 25.899 16.5789 25.2243 15.3645C24.7304 14.4756 24.2127 13.9683 23.75 13.7136V20.25ZM22.25 13.7136V20.25H19.5188C19.618 18.2853 20.101 16.5789 20.7757 15.3645C21.2696 14.4756 21.7873 13.9683 22.25 13.7136ZM26.3225 27.7258C27.2545 26.233 27.8742 24.1219 27.9829 21.75H30.463C30.2021 24.3773 28.5854 26.6058 26.3225 27.7258ZM27.9829 20.25H30.463C30.2021 17.6227 28.5854 15.3942 26.3225 14.2742C27.2545 15.767 27.8742 17.8781 27.9829 20.25ZM19.6775 14.2742C18.7455 15.767 18.1258 17.8781 18.0171 20.25H15.537C15.7979 17.6227 17.4146 15.3942 19.6775 14.2742ZM19.6775 27.7258C17.4146 26.6058 15.7979 24.3773 15.537 21.75H18.0171C18.1258 24.1219 18.7455 26.233 19.6775 27.7258Z" fill="#1C2B39"/>
</svg>
