<svg xmlns="http://www.w3.org/2000/svg" width="201" height="44">
    <path fill="#FFF" fill-rule="evenodd" d="M63.371 31.22c-7.471 6.335-18.701.719-18.979-8.946-.276-10.191 8.577-13.973 17.288-12.136 3.32-.134 5.146-4.524.086-6.521-5.535-1.757-11.372-1.171-16.182 1.782-2.88 1.81-5.174 4.154-6.833 7.108-1.687 2.928-2.519 6.097-2.519 9.53 0 3.458.916 6.682 2.713 9.635 1.825 2.981 4.314 5.322 7.411 7.08 3.181 1.73 6.639 2.605 10.374 2.605 3.677 0 6.278-.982 9.239-3.323 4.589-3.779 1.773-7.401-2.598-6.814zM18.075 2.636c-2.101.131-4.286 1.22-5.735 3.478C8.216 16.962 4.122 27.835-.002 38.685L7.207 41.2l2.759-7.551H26.16l2.783 7.708 7.291-2.804-12.78-33.011c-1.036-1.997-3.164-3.01-5.379-2.906zm-5.787 24.625l5.787-15.854v-.052l5.761 15.906H12.288zm185.225 2.634c-.683 0-1.665.036-2.348.44-.542.317-1.173 1.002-1.173 2.214 0 1.07.473 1.598.665 1.773.456.421 1.175.597 1.244.614l-2.365 3.794h2.084l1.998-3.425h1.63v3.425h1.751v-8.835h-3.486zm1.735 3.918h-1.928c-.35 0-.753-.035-1.086-.264a.95.95 0 0 1-.42-.824c0-.721.35-1.002.525-1.09.123-.07.42-.193 1.139-.193h1.77v2.371zm-10.458-.473h-4.362v-3.445h-1.751v8.835h1.751v-3.847h4.362v3.847h1.752v-8.835h-1.752v3.445zm-11.82 0h-4.362v-3.445h-1.752v8.835h1.752v-3.847h4.362v3.847h1.752v-8.835h-1.752v3.445zm-13.817-3.445c-1.42 0-2.137.237-2.524.457-.524.287-1.12.861-1.173 1.84h1.786a.856.856 0 0 1 .439-.709c.157-.084.508-.253 1.402-.253.665 0 1.068.118 1.296.305.438.354.42.995.42 1.366v.322h-1.332c-1.786 0-2.61.337-2.995.54-1.103.575-1.418 1.621-1.418 2.33 0 .962.472 1.588.893 1.925.472.388 1.208.712 2.294.712.596 0 1.612-.135 2.558-.967v.967h1.752v-5.456c0-.828-.088-1.993-.859-2.686-.718-.641-1.856-.693-2.539-.693zm1.646 4.931c0 .845-.262 1.385-.508 1.707-.438.573-1.157.861-1.875.861-.507 0-.91-.17-1.174-.422-.209-.204-.367-.507-.367-.946 0-.811.491-1.166 1.034-1.335.543-.167 1.069-.151 1.716-.151h1.174v.286zm-11.33-.767c.368-.124.771-.369.998-.651.229-.297.351-.754.351-1.194 0-.824-.368-1.352-.683-1.633-.719-.633-1.822-.686-2.453-.686h-4.116v8.835h4.239c.56 0 1.716-.034 2.522-.72.509-.439.824-1.106.824-1.861 0-.581-.193-1.089-.491-1.441-.28-.298-.7-.561-1.191-.649zm-4.152-2.652h2.138c.297 0 .91 0 1.226.263.192.158.315.422.315.737 0 .352-.123.58-.297.72-.368.317-.982.281-1.331.281h-2.051v-2.001zm3.661 5.46c-.367.318-.893.352-1.243.352h-2.418v-2.405h2.365c.421 0 .841.053 1.156.246.263.175.491.473.491.983 0 .387-.158.65-.351.824zm-12.73-2.12l-2.786-4.852h-2.085l3.96 6.545-1.49 2.696a1.681 1.681 0 0 1-.367.466c-.246.207-.508.242-.736.242h-.665v1.519h.717c.491 0 .981-.086 1.507-.432.438-.293.788-.724 1.016-1.122l5.465-9.914h-1.926l-2.61 4.852zm-6.513-4.852h-2.067l-2.032 2.986-2.032-2.986h-2.19l3.1 4.286-3.258 4.549h2.103l2.172-3.214 2.207 3.214h2.207l-3.276-4.531 3.066-4.304zm-15.061 0c-1.419 0-2.137.237-2.523.457-.525.287-1.121.861-1.174 1.84h1.787a.85.85 0 0 1 .439-.709c.156-.084.507-.253 1.401-.253.666 0 1.068.118 1.296.305.438.354.421.995.421 1.368v.32h-1.332c-1.786 0-2.61.337-2.996.54-1.103.575-1.418 1.621-1.418 2.33 0 .963.472 1.588.893 1.926.473.389 1.208.711 2.295.711.596 0 1.611-.135 2.558-.965v.965h1.751v-5.456c0-.828-.087-1.993-.858-2.686-.718-.641-1.857-.693-2.54-.693zm1.647 4.931c0 .845-.264 1.385-.508 1.707-.439.573-1.156.861-1.875.861-.508 0-.911-.17-1.174-.422-.21-.203-.367-.507-.367-.946 0-.811.49-1.166 1.033-1.335.543-.167 1.069-.151 1.717-.151h1.174v.286zm-13.205-4.931c-.56 0-1.016.067-1.472.236-.455.169-.875.424-1.226.881v-1.117h-1.664v11.468h1.752V37.628c.211.27.56.609 1.12.846.51.223 1.039.256 1.494.256 1.437 0 2.273-.458 2.869-1.136.771-.863.998-1.929.998-3.282 0-1.219-.21-2.506-1.156-3.436-.841-.812-1.822-.981-2.715-.981zm1.594 6.346c-.263.424-.806 1.016-1.874 1.016-.964 0-1.524-.474-1.84-.965-.437-.66-.49-1.507-.49-1.98 0-.491.07-1.354.508-1.998.333-.473.876-.93 1.822-.93.893 0 1.435.406 1.751.812.123.152.578.795.578 2.116 0 .71-.14 1.42-.455 1.929zm-17.129-4.799h3.067v7.288h1.751v-7.288h3.1v-1.547h-7.918v1.547zm-5.04 5.435c-.245.218-.666.335-.999.335-1.121 0-1.611-.851-1.856-1.651-.071-.234-.316-1.066-.316-2.6 0-.733.053-1.983.421-2.866.35-.817.875-1.3 1.769-1.3.456 0 .77.15.963.316.246.217.421.55.421.933h1.787c-.018-1.299-.824-1.999-.911-2.082-.42-.367-1.139-.701-2.225-.701-1.209 0-2.453.367-3.276 1.8-.666 1.183-.771 3.001-.771 3.967 0 1 .123 2.583.666 3.683.666 1.35 1.7 2.019 3.399 2.019 1.121 0 1.856-.335 2.277-.702.63-.55.946-1.5.963-2.217h-1.821c-.035.4-.228.833-.491 1.066zm56.515-28.835c-.926 0-1.529.094-2.281.451V2.656h-3.563v5.837c-.748-.357-1.355-.451-2.28-.451-3.646 0-5.865 2.205-5.865 7.156 0 4.597 2.006 7.023 5.259 7.023 1.53 0 2.434-.393 2.886-.661v4.884h3.563V21.56c.454.268 1.358.661 2.881.661 3.031 0 5.263-2.513 5.263-7.107 0-4.953-2.217-7.072-5.863-7.072zm-5.844 10.894c-.775.254-1.142.289-1.835.289-1.869 0-2.636-1.527-2.636-4.027 0-2.733.823-4.173 2.465-4.173.693 0 1.152-.005 2.006.402v7.509zm5.397.289c-.69 0-1.054-.035-1.834-.289v-7.509c.855-.407 1.316-.402 2.005-.402 1.644 0 2.466 1.354 2.466 4.089 0 2.498-.996 4.111-2.637 4.111zM103.078 8.888v6.708c0 1.826-.032 2.375-.231 2.961-.198.519-.462 1.14-1.185 1.617l.976 2.09c2.872-.806 3.954-2.055 3.954-6.024v-4.935c.95-.14 1.137-.171 1.894-.171.761 0 .92.031 1.865.171v10.688h3.58V8.888c-1.963-.584-3.475-.836-5.445-.836-1.97 0-3.443.252-5.408.836zm59.124 11.797c-.942-1.433-1.187-2.279-1.187-4.083v-3.663c0-1.978-.23-2.706-.754-3.43-.726-1.02-1.937-1.457-4.169-1.457-1.575 0-3.124.169-4.603.544l.53 2.624c1.007-.139 2.053-.259 2.812-.259 2.369 0 2.643.344 2.643 2.114v.666a6.89 6.89 0 0 0-1.808-.243c-3.58 0-5.463 1.744-5.463 4.619 0 2.705 2.01 4.179 4.477 4.179.917 0 1.872-.168 2.629-.474.454-.201.654-.313 1.244-.703.359.523 1.07 1.052 1.362 1.145l2.287-1.579zm-6.469-1.233c-1.28 0-2.007-.503-2.007-1.816 0-1.363.919-1.826 2.691-1.826.426 0 .856.063 1.057.134v.979c0 1.057.052 1.746.184 2.196-.786.271-1.304.333-1.925.333zm-28.046-2.333c0-2.927-1.799-4.738-5.164-4.738-.854 0-1.355.114-2.293.341V8.269h-3.576l-.015 13.008c1.697.716 3.561 1.035 5.216 1.035 3.799 0 5.832-1.961 5.832-5.193zm-7.459 2.215v-3.922c.932-.18 1.015-.211 1.568-.211 1.641 0 2.192.798 2.192 2.083 0 1.341-.474 2.261-2.192 2.261-.579 0-.816 0-1.568-.211zM90.729 2.633c-1.07.071-2.182.653-2.919 1.859-2.1 5.799-4.183 11.611-6.282 17.409l3.668 1.345 1.405-4.036h8.242l1.417 4.119 3.711-1.497-6.504-17.646c-.528-1.067-1.611-1.608-2.738-1.553zm-2.946 13.164l2.946-8.475v-.028l2.932 8.503h-5.878zM74.935-.006a1.32 1.32 0 0 0-1.319 1.318v41.369a1.319 1.319 0 0 0 2.638 0V1.312a1.32 1.32 0 0 0-1.319-1.318z"/>
</svg>
