<svg width="48" height="48" viewBox="0 0 48 48" fill="none" xmlns="http://www.w3.org/2000/svg">
<g clip-path="url(#clip0)">
<path d="M43.7812 16.9688C43.5253 16.9688 41.2053 16.9688 40.9688 16.9688C37.3323 16.9688 35.4752 15.2041 33.4317 13.162C31.262 10.9908 28.801 8.53125 24 8.53125C19.199 8.53125 16.738 10.9908 14.5683 13.162C12.5248 15.2041 10.6677 16.9688 7.03125 16.9688C6.77531 16.9688 4.45528 16.9688 4.21875 16.9688C1.89244 16.9688 0 18.8612 0 21.1875C0 27.9204 5.394 33.3901 12.208 33.7711C14.9308 36.9973 18.714 39.4688 24 39.4688C29.2751 39.4688 33.0534 37.0073 35.7751 33.7907C42.5063 33.5085 48 27.9868 48 21.1875C48 18.8612 46.1076 16.9688 43.7812 16.9688ZM2.8125 21.1875C2.8125 20.4116 3.44287 19.7812 4.21875 19.7812H5.85281C6.27441 21.8989 7.50234 26.4024 9.95278 30.577C5.89313 29.3627 2.8125 25.6364 2.8125 21.1875ZM19.7812 18.373C19.7812 17.595 20.4122 16.9644 21.1902 16.9648L26.8129 16.968C27.5895 16.9684 28.2188 17.598 28.2188 18.3746C28.2188 19.1515 27.589 19.7812 26.8121 19.7812H21.1895C20.4117 19.7812 19.7812 19.1508 19.7812 18.373ZM28.2188 29.625C28.2188 30.4016 27.5891 31.0312 26.8125 31.0312H21.1875C20.4109 31.0312 19.7812 30.4016 19.7812 29.625C19.7812 28.8484 20.4109 28.2188 21.1875 28.2188H26.8125C27.5891 28.2188 28.2188 28.8484 28.2188 29.625ZM33.8438 24C33.8438 24.7766 33.2141 25.4062 32.4375 25.4062H15.5625C14.7859 25.4062 14.1562 24.7766 14.1562 24C14.1562 23.2233 14.7858 22.5938 15.5625 22.5938H32.4375C33.2141 22.5938 33.8438 23.2233 33.8438 24ZM38.0472 30.577C40.4977 26.4024 41.7256 21.8989 42.1472 19.7812H43.7812C44.5571 19.7812 45.1875 20.4116 45.1875 21.1875C45.1875 25.6364 42.1069 29.3627 38.0472 30.577Z" fill="#E72D2B"/>
</g>
<defs>
<clipPath id="clip0">
<rect width="48" height="48" fill="white"/>
</clipPath>
</defs>
</svg>
