<svg width="20" height="20" viewBox="0 0 20 20" fill="none" xmlns="http://www.w3.org/2000/svg">
<g clip-path="url(#clip0)">
<path fill-rule="evenodd" clip-rule="evenodd" d="M17.8139 3.4185C18.6744 3.64846 19.352 4.32607 19.582 5.18662C20 6.74631 20 10.0005 20 10.0005C20 10.0005 20 13.2547 19.582 14.8143C19.352 15.6748 18.6744 16.3526 17.8139 16.5826C16.254 17.0004 9.99992 17.0004 9.99992 17.0004C9.99992 17.0004 3.74582 17.0004 2.18594 16.5826C1.32559 16.3526 0.647812 15.6748 0.417812 14.8143C0 13.2547 0 10.0005 0 10.0005C0 10.0005 0 6.74631 0.417812 5.18662C0.647812 4.32607 1.32559 3.64846 2.18594 3.4185C3.74582 3.00049 9.99992 3.00049 9.99992 3.00049C9.99992 3.00049 16.254 3.00049 17.8139 3.4185ZM13.1959 9.99955L7.99988 12.9996V6.99951L13.1959 9.99955Z" fill="#E72D2B"/>
</g>
<defs>
<clipPath id="clip0">
<rect width="20" height="20" fill="white"/>
</clipPath>
</defs>
</svg>
