<svg xmlns="http://www.w3.org/2000/svg" width="31.875" height="32" viewBox="0 0 31.875 32"><defs><style>.a{fill:#fff;}</style></defs><g transform="translate(-1 0)"><path class="a" d="M229.741,71.991c-.144-.051-.291-.1-.437-.159V69.343a1.162,1.162,0,0,1,.5.265.625.625,0,0,0,.94-.824,2.408,2.408,0,0,0-1.443-.717v-.442a.625.625,0,0,0-1.25,0v.514c-.065.016-.13.033-.2.053a2.317,2.317,0,0,0-1.588,1.817,2.049,2.049,0,0,0,.674,2.018,5.294,5.294,0,0,0,1.111.642v3.174a2.188,2.188,0,0,1-1.089-.432.625.625,0,1,0-.684,1.046,3.373,3.373,0,0,0,1.773.64v.526a.625.625,0,0,0,1.25,0v-.583a2.811,2.811,0,0,0,2.117-2.258A2.441,2.441,0,0,0,229.741,71.991Zm-2.027-.946a.827.827,0,0,1-.217-.8,1.115,1.115,0,0,1,.557-.785V71.27A2.951,2.951,0,0,1,227.714,71.045Zm2.474,3.532a1.554,1.554,0,0,1-.884,1.156V73.162l.021.007A1.215,1.215,0,0,1,230.188,74.577Z" transform="translate(-210.935 -62.812)"/><path class="a" d="M61.938,93.875h6.875a.938.938,0,0,0,0-1.875H61.938a.938.938,0,0,0,0,1.875Z" transform="translate(-56.25 -86.25)"/><path class="a" d="M61.938,153.875h6.875a.938.938,0,0,0,0-1.875H61.938a.938.938,0,0,0,0,1.875Z" transform="translate(-56.25 -142.5)"/><path class="a" d="M61.938,213.875h6.875a.938.938,0,0,0,0-1.875H61.938a.938.938,0,0,0,0,1.875Z" transform="translate(-56.25 -198.75)"/><path class="a" d="M75.688,272H61.938a.938.938,0,0,0,0,1.875h13.75a.938.938,0,0,0,0-1.875Z" transform="translate(-56.25 -255)"/><path class="a" d="M75.688,332H61.938a.938.938,0,0,0,0,1.875h13.75a.938.938,0,0,0,0-1.875Z" transform="translate(-56.25 -311.25)"/><path class="a" d="M75.688,392H61.938a.938.938,0,0,0,0,1.875h13.75a.938.938,0,0,0,0-1.875Z" transform="translate(-56.25 -367.5)"/><path class="a" d="M32.369,18.98a.938.938,0,0,0-.972.066L29.278,20.54,27.16,19.046a.938.938,0,0,0-1.081,0l-1.954,1.379V.937A.938.938,0,0,0,22.647.171L20.528,1.665,18.41.171a.938.938,0,0,0-1.081,0L15.213,1.665,13.1.172a.938.938,0,0,0-1.082,0L9.9,1.665,7.789.172a.938.938,0,0,0-1.082,0L4.593,1.665,2.478.172A.937.937,0,0,0,1,.937V26.063A5.944,5.944,0,0,0,6.937,32H27.562a5.319,5.319,0,0,0,5.313-5.312V19.813A.937.937,0,0,0,32.369,18.98ZM2.875,26.063V2.747l1.177.831a.938.938,0,0,0,1.082,0L7.248,2.085,9.362,3.578a.937.937,0,0,0,1.082,0l2.114-1.493,2.114,1.493a.938.938,0,0,0,1.081,0L17.87,2.085l2.118,1.494a.938.938,0,0,0,1.081,0l1.181-.833V26.688a5.288,5.288,0,0,0,1.267,3.438H6.937A4.067,4.067,0,0,1,2.875,26.063ZM31,26.688a3.438,3.438,0,0,1-6.875,0V22.611a.936.936,0,0,0,.378-.157L26.62,20.96l2.118,1.494a.938.938,0,0,0,1.081,0L31,21.621Z"/></g></svg>