<svg xmlns="http://www.w3.org/2000/svg" width="27.429" height="32" viewBox="0 0 27.429 32"><defs><style>.a{fill:#fff;}</style></defs><g transform="translate(-34.133)"><g transform="translate(34.133)"><path class="a" d="M60.419,0H38.7a1.143,1.143,0,0,0-1.143,1.143V4.571H35.276a1.143,1.143,0,0,0-1.143,1.143V30.857A1.143,1.143,0,0,0,35.276,32H55.847a1.143,1.143,0,0,0,1.143-1.143V29.714h3.429a1.143,1.143,0,0,0,1.143-1.143V1.143A1.143,1.143,0,0,0,60.419,0ZM54.7,29.714H36.419V6.857H48.99v4.571a1.143,1.143,0,0,0,1.143,1.143H54.7V29.714ZM51.276,10.286V8.473l1.813,1.813Zm8,17.143H56.99v-16a1.156,1.156,0,0,0-.336-.809L50.94,4.905a1.156,1.156,0,0,0-.807-.334H39.847V2.286H59.276Z" transform="translate(-34.133)"/></g><g transform="translate(38.704 14.857)"><path class="a" d="M114.971,221.867H103.543a1.143,1.143,0,1,0,0,2.286h11.429a1.143,1.143,0,1,0,0-2.286Z" transform="translate(-102.4 -221.867)"/></g><g transform="translate(38.704 19.429)"><path class="a" d="M114.971,290.133H103.543a1.143,1.143,0,0,0,0,2.286h11.429a1.143,1.143,0,1,0,0-2.286Z" transform="translate(-102.4 -290.133)"/></g><g transform="translate(38.704 24)"><path class="a" d="M114.971,358.4H103.543a1.143,1.143,0,1,0,0,2.286h11.429a1.143,1.143,0,1,0,0-2.286Z" transform="translate(-102.4 -358.4)"/></g></g></svg>