<svg xmlns="http://www.w3.org/2000/svg" width="32" height="31.999" viewBox="0 0 32 31.999"><defs><style>.a{fill:#fff;}</style></defs><g transform="translate(32 -0.004) rotate(90)"><g transform="translate(0.004 0)"><path class="a" d="M30.861,0a1.143,1.143,0,0,0-.511.121l-8.66,4.331L11.9.1c-.016-.007-.034-.008-.051-.015A1.143,1.143,0,0,0,11.71.043a1.186,1.186,0,0,0-.138-.029,1.7,1.7,0,0,0-.279,0,1.186,1.186,0,0,0-.138.029,1.143,1.143,0,0,0-.135.041C11,.091,10.984.092,10.968.1L.683,4.67A1.143,1.143,0,0,0,0,5.715V30.857A1.143,1.143,0,0,0,1.611,31.9l9.822-4.366L21.254,31.9c.017.007.035,0,.053.01a1.009,1.009,0,0,0,.865-.019c.018-.008.039,0,.057-.013l9.143-4.571A1.143,1.143,0,0,0,32,26.286V1.143A1.143,1.143,0,0,0,30.861,0ZM10.29,25.543l-8,3.555V6.458l8-3.555ZM20.575,29.1l-8-3.555V2.9l8,3.555Zm9.143-3.519-6.857,3.429V6.421l6.857-3.429Z" transform="translate(-0.004 0)"/></g></g></svg>